<svg width="500pt" height="500pt" version="1.1" viewBox="0 0 700 700" xmlns="http://www.w3.org/2000/svg" xmlns:xlink="http://www.w3.org/1999/xlink">
 <g transform="translate(-87, -10) scale(1.25)">
  <path d="m265.86 185.29c41.246-5.9609 57.227-42.621 58.883-78.293-52.766-3.7383-104.29 11.516-136.45 24.023 12.746 30.363 39.129 59.805 77.57 54.27z"/>
  <path d="m542.47 236.17-1.0312-0.78906s-31.664-17.156-76.242-28.848l9.9922-14.566-115.7-79.305-2.2656-0.81641c-4.2109-1-8.457-1.8047-12.691-2.5078-2.8828 62.445-40.164 90.379-75.844 95.543-4.3008 0.62109-8.5 0.92188-12.562 0.92188-42.852 0-71.848-33.16-86.102-67.148-9.5195 4.2617-14.969 7.2188-14.969 7.2188l-1.0195 0.78516-84.043 111.87 81.742 61.371 25.238-33.574 15.891 96.812 118.96-20.762-2.2578 13.793-114.56 19.98 2.6562 16.203 108.88-17.883-12.117 73.816 204.4 33.574 20.684-126.02 25.25 33.574 81.73-61.371zm-154.23-20.504c42.473 0 83.199 12.07 110.41 22.457-14.621 24.293-40.555 37.988-66.996 33.648-26.863-4.4258-47.574-27.172-53.059-55.855 3.1758-0.14453 6.3867-0.25 9.6406-0.25zm94.254 263.44-165.32-27.137 1.7812-10.859 165.41 26.73zm52.859-115.17-27.852-37.059-7.5117 45.738-13.504 82.203-165.39-26.723 13.789-83.957 7.5273-45.746-38.246 26.203-19.922 13.656-35.41-51.656 96.906-66.43c4.2695-0.95703 8.6484-1.7109 13.129-2.3633 6.4883 37.52 33.855 67.625 69.594 73.496 4.3477 0.71484 8.6914 1.0586 12.992 1.0586 30.824 0 59.523-17.895 75.668-46.672 5.3125 2.3594 9.4219 4.3164 11.93 5.5742l69.715 92.82-50.059 37.621z"/>
  <!-- Source: https://thenounproject.com/icon/tshirts-30038/ -->
 </g>
</svg>
