<svg
    xmlns="http://www.w3.org/2000/svg"
    viewBox="110 103 375 375"
    width="100%"
    height="100%"
>
    <!-- Black background with rounded corners -->
    <rect
        x="110"
        y="103"
        width="375"
        height="375"
        rx="45"
        ry="45"
        fill="#111111"
    />

    <polygon
        points="300,120 460,200 460,380 300,460 140,380 140,200"
        fill="none"
        stroke="rgb(245, 158, 11)"
        stroke-width="18"
        stroke-linejoin="round"
        stroke-linecap="round"
    />

    <line
        x1="300"
        y1="280"
        x2="300"
        y2="460"
        stroke="rgb(245, 158, 11)"
        stroke-width="18"
        stroke-linejoin="round"
        stroke-linecap="round"
    />
    <line
        x1="140"
        y1="200"
        x2="300"
        y2="280"
        stroke="rgb(245, 158, 11)"
        stroke-width="18"
        stroke-linejoin="round"
        stroke-linecap="round"
    />
    <line
        x1="460"
        y1="200"
        x2="300"
        y2="280"
        stroke="rgb(245, 158, 11)"
        stroke-width="18"
        stroke-linejoin="round"
        stroke-linecap="round"
    />

    <polygon
        points="360,150 400,170 240,250 240,370 220,330 200,350 200,230"
        stroke-width="18"
        stroke-linejoin="round"
        stroke-linecap="round"
        stroke="rgb(180, 83, 9)"
        fill="rgb(180, 83, 9)"
    />
    <!-- 
    <line
        x1="156"
        y1="340"
        x2="156"
        y2="365"
        stroke="rgb(245, 158, 11)"
        stroke-width="18"
        stroke-linecap="round"
    />
    <line
        x1="164"
        y1="344"
        x2="164"
        y2="369"
        stroke="rgb(245, 158, 11)"
        stroke-width="18"
        stroke-linecap="round"
    />
    <line
        x1="172"
        y1="348"
        x2="172"
        y2="373"
        stroke="rgb(245, 158, 11)"
        stroke-width="18"
        stroke-linecap="round"
    />
    <line
        x1="180"
        y1="352"
        x2="180"
        y2="377"
        stroke="rgb(245, 158, 11)"
        stroke-width="18"
        stroke-linecap="round"
    />
    <line
        x1="188"
        y1="356"
        x2="188"
        y2="381"
        stroke="rgb(245, 158, 11)"
        stroke-width="18"
        stroke-linecap="round"
    /> -->
    <line
        x1="364"
        y1="400"
        x2="396"
        y2="384"
        stroke="rgb(180, 83, 9)"
        stroke-width="18"
        stroke-linejoin="round"
        stroke-linecap="round"
    />
</svg>
